# xmcd
#
# Track frame offsets:
#	150
#	16065
#	30435
#	48112
#	67042
#	87435
#	132122
#	157137
#	173412
#	195977
#	211947
#	216080
#	244107
#
# Disc length: 3569 seconds
#
# Revision: 1
# Processed by: cddbd v1.5.1PL0 Copyright (c) Steve Scherf et al.
# Submitted via: audiograbber 1.83.01
#
DISCID=a30def0d
DTITLE=The Stuff - In memory of Stevie Ray Vaughan
DYEAR=1996
DGENRE=Blues Rock
TTITLE0=Say What
TTITLE1=Mary Had A Little Lamb
TTITLE2=Gold Shot
TTITLE3=Empty Arms
TTITLE4=Tight Rope
TTITLE5=Texas Flood
TTITLE6=Pride And Joy
TTITLE7=House Is Rocking
TTITLE8=Couldn't Stand The Weather
TTITLE9=Come On
TTITLE10=Acid Bridge
TTITLE11=Woodoo Chile
TTITLE12=Lenny
EXTD=
EXTT0=
EXTT1=
EXTT2=
EXTT3=
EXTT4=
EXTT5=
EXTT6=
EXTT7=
EXTT8=
EXTT9=
EXTT10=
EXTT11=
EXTT12=
PLAYORDER=
